<svg height="351pt" viewBox="-1 0 351 351.57333" width="351pt" xmlns="http://www.w3.org/2000/svg"><path d="m229.535156 110.019531c-25.429687 0-46.117187 20.6875-46.117187 46.121094s20.6875 46.117187 46.117187 46.117187c25.429688 0 46.121094-20.683593 46.121094-46.117187s-20.6875-46.121094-46.121094-46.121094zm0 78.585938c-17.902344 0-32.464844-14.566407-32.464844-32.464844s14.5625-32.464844 32.464844-32.464844 32.46875 14.5625 32.46875 32.464844c0 17.898437-14.566406 32.464844-32.46875 32.464844zm0 0"/><path d="m229.535156 134.460938c-11.953125 0-21.675781 9.726562-21.675781 21.679687s9.722656 21.679687 21.675781 21.679687 21.675782-9.726562 21.675782-21.679687-9.722657-21.679687-21.675782-21.679687zm0 29.703124c-4.421875 0-8.023437-3.597656-8.023437-8.023437 0-4.429687 3.601562-8.027344 8.023437-8.027344 4.425782 0 8.023438 3.597657 8.023438 8.027344 0 4.425781-3.597656 8.023437-8.023438 8.023437zm0 0"/><path d="m119.515625 110.019531c-25.429687 0-46.117187 20.6875-46.117187 46.121094s20.6875 46.117187 46.117187 46.117187 46.117187-20.683593 46.117187-46.117187-20.6875-46.121094-46.117187-46.121094zm0 78.585938c-17.902344 0-32.464844-14.566407-32.464844-32.464844s14.5625-32.464844 32.464844-32.464844c17.898437 0 32.464844 14.566407 32.464844 32.464844s-14.5625 32.464844-32.464844 32.464844zm0 0"/><path d="m119.515625 134.460938c-11.953125 0-21.679687 9.726562-21.679687 21.679687s9.726562 21.679687 21.679687 21.679687 21.675781-9.726562 21.675781-21.679687-9.722656-21.679687-21.675781-21.679687zm0 29.703124c-4.425781 0-8.027344-3.597656-8.027344-8.023437 0-4.429687 3.601563-8.027344 8.027344-8.027344s8.023437 3.597657 8.023437 8.027344c0 4.425781-3.597656 8.023437-8.023437 8.023437zm0 0"/><path d="m341.621094 139.945312h-20.480469v-95.511718c9.941406-2.34375 17.382813-11.242188 17.382813-21.886719 0-12.433594-10.113282-22.546875-22.542969-22.546875-12.429688 0-22.542969 10.113281-22.542969 22.546875 0 9.421875 5.824219 17.488281 14.050781 20.851563v96.546874h-6.828125v-40.53125c0-19.054687-15.503906-34.5625-34.558594-34.5625h-183.46875c-19.054687 0-34.558593 15.507813-34.558593 34.5625v40.53125h-6.828125v-96.449218c8.390625-3.285156 14.367187-11.414063 14.367187-20.949219 0-12.433594-10.113281-22.546875-22.542969-22.546875-12.429687 0-22.542968 10.113281-22.542968 22.546875 0 10.527344 7.289062 19.324219 17.066406 21.789063v95.609374h-20.480469c-3.769531 0-6.828125 3.054688-6.828125 6.828126v81.917968c0 3.773438 3.058594 6.828125 6.828125 6.828125h40.960938v81.492188c0 19.054687 15.503906 34.5625 34.558593 34.5625h183.46875c19.054688 0 34.558594-15.507813 34.558594-34.5625v-81.492188h40.960938c3.769531 0 6.824218-3.054687 6.824218-6.828125v-81.917968c0-3.773438-3.054687-6.828126-6.824218-6.828126zm-25.640625-126.292968c4.902343 0 8.890625 3.988281 8.890625 8.894531 0 4.570313-3.511719 8.207031-7.957032 8.699219-.804687-.332032-1.675781-.527344-2.601562-.527344-.332031 0-.613281.144531-.929688.1875-3.613281-1.125-6.292968-4.378906-6.292968-8.359375 0-4.90625 3.988281-8.894531 8.890625-8.894531zm-291.800781 8.894531c0-4.90625 3.988281-8.894531 8.890624-8.894531 4.902344 0 8.890626 3.988281 8.890626 8.894531 0 4.035156-2.757813 7.3125-6.453126 8.394531-.367187-.0625-.699218-.222656-1.085937-.222656-.867187 0-1.679687.199219-2.445313.496094-4.363281-.566406-7.796874-4.15625-7.796874-8.667969zm-10.238282 199.320313v-68.265626h34.132813v68.265626zm273.066406 95.144531c0 11.527343-9.382812 20.910156-20.90625 20.910156h-183.46875c-11.527343 0-20.90625-9.382813-20.90625-20.910156v-217.597657c0-11.527343 9.378907-20.90625 20.90625-20.90625h183.46875c11.523438 0 20.90625 9.378907 20.90625 20.90625zm47.785157-95.144531h-34.132813v-68.265626h34.132813zm0 0"/></svg>